<?xml version="1.0" encoding="utf-8" standalone="no"?>
<!DOCTYPE svg PUBLIC "-//W3C//DTD SVG 1.1//EN"
  "http://www.w3.org/Graphics/SVG/1.1/DTD/svg11.dtd">
<svg xmlns:xlink="http://www.w3.org/1999/xlink" width="240.944882pt" height="141.732283pt" viewBox="0 0 240.944882 141.732283" xmlns="http://www.w3.org/2000/svg" version="1.1">
 <metadata>
  <rdf:RDF xmlns:dc="http://purl.org/dc/elements/1.1/" xmlns:cc="http://creativecommons.org/ns#" xmlns:rdf="http://www.w3.org/1999/02/22-rdf-syntax-ns#">
   <cc:Work>
    <dc:type rdf:resource="http://purl.org/dc/dcmitype/StillImage"/>
    <dc:date>2026-09-20T20:46:08.189670</dc:date>
    <dc:format>image/svg+xml</dc:format>
    <dc:creator>
     <cc:Agent>
      <dc:title>Matplotlib v3.10.0, https://matplotlib.org/</dc:title>
     </cc:Agent>
    </dc:creator>
   </cc:Work>
  </rdf:RDF>
 </metadata>
 <defs>
  <style type="text/css">*{stroke-linejoin: round; stroke-linecap: butt}</style>
 </defs>
 <g id="figure_1">
  <g id="patch_1">
   <path d="M 0 141.732283 
L 240.944882 141.732283 
L 240.944882 0 
L 0 0 
L 0 141.732283 
z
" style="fill: none"/>
  </g>
  <g id="axes_1">
   <g id="patch_2">
    <path d="M 33.02625 116.232283 
L 234.464882 116.232283 
L 234.464882 8.224674 
L 33.02625 8.224674 
L 33.02625 116.232283 
z
" style="fill: none"/>
   </g>
   <g id="FillBetweenPolyCollection_1">
    <defs>
     <path id="ma02de11cde" d="M 42.182551 -78.128828 
L 42.182551 -48.27632 
L 45.747019 -63.367781 
L 48.112031 -66.824224 
L 50.477044 -70.285095 
L 53.993927 -72.854973 
L 58.757257 -76.377172 
L 65.226584 -74.112552 
L 75.639969 -75.919712 
L 92.381139 -77.252194 
L 225.30858 -76.757533 
L 225.30858 -111.1188 
L 225.30858 -111.1188 
L 92.381139 -105.719548 
L 75.639969 -105.464901 
L 65.226584 -101.815602 
L 58.757257 -101.829215 
L 53.993927 -98.412173 
L 50.477044 -95.426882 
L 48.112031 -94.042151 
L 45.747019 -88.390872 
L 42.182551 -78.128828 
z
" style="stroke: #008080; stroke-opacity: 0.3"/>
    </defs>
    <g clip-path="url(#pc78eea404d)">
     <use xlink:href="#ma02de11cde" x="0" y="141.732283" style="fill: #008080; fill-opacity: 0.3; stroke: #008080; stroke-opacity: 0.3"/>
    </g>
   </g>
   <g id="PathCollection_1">
    <defs>
     <path id="m7cb2dda62a" d="M 0 2.236068 
C 0.593012 2.236068 1.161816 2.000462 1.581139 1.581139 
C 2.000462 1.161816 2.236068 0.593012 2.236068 0 
C 2.236068 -0.593012 2.000462 -1.161816 1.581139 -1.581139 
C 1.161816 -2.000462 0.593012 -2.236068 0 -2.236068 
C -0.593012 -2.236068 -1.161816 -2.000462 -1.581139 -1.581139 
C -2.000462 -1.161816 -2.236068 -0.593012 -2.236068 0 
C -2.236068 0.593012 -2.000462 1.161816 -1.581139 1.581139 
C -1.161816 2.000462 -0.593012 2.236068 0 2.236068 
z
" style="stroke: #008080; stroke-opacity: 0.35"/>
    </defs>
    <g clip-path="url(#pc78eea404d)">
     <use xlink:href="#m7cb2dda62a" x="42.182551" y="73.299625" style="fill: #008080; fill-opacity: 0.35; stroke: #008080; stroke-opacity: 0.35"/>
     <use xlink:href="#m7cb2dda62a" x="45.747019" y="64.133961" style="fill: #008080; fill-opacity: 0.35; stroke: #008080; stroke-opacity: 0.35"/>
     <use xlink:href="#m7cb2dda62a" x="48.112031" y="58.067132" style="fill: #008080; fill-opacity: 0.35; stroke: #008080; stroke-opacity: 0.35"/>
     <use xlink:href="#m7cb2dda62a" x="50.477044" y="57.287186" style="fill: #008080; fill-opacity: 0.35; stroke: #008080; stroke-opacity: 0.35"/>
     <use xlink:href="#m7cb2dda62a" x="53.993927" y="54.026531" style="fill: #008080; fill-opacity: 0.35; stroke: #008080; stroke-opacity: 0.35"/>
     <use xlink:href="#m7cb2dda62a" x="58.757257" y="49.636997" style="fill: #008080; fill-opacity: 0.35; stroke: #008080; stroke-opacity: 0.35"/>
     <use xlink:href="#m7cb2dda62a" x="65.226584" y="52.548639" style="fill: #008080; fill-opacity: 0.35; stroke: #008080; stroke-opacity: 0.35"/>
     <use xlink:href="#m7cb2dda62a" x="75.639969" y="47.400964" style="fill: #008080; fill-opacity: 0.35; stroke: #008080; stroke-opacity: 0.35"/>
     <use xlink:href="#m7cb2dda62a" x="92.381139" y="48.254007" style="fill: #008080; fill-opacity: 0.35; stroke: #008080; stroke-opacity: 0.35"/>
     <use xlink:href="#m7cb2dda62a" x="225.30858" y="45.977343" style="fill: #008080; fill-opacity: 0.35; stroke: #008080; stroke-opacity: 0.35"/>
    </g>
   </g>
   <g id="FillBetweenPolyCollection_2">
    <defs>
     <path id="me8fe4d60b6" d="M 42.182551 -79.42363 
L 42.182551 -57.007199 
L 45.747019 -73.734811 
L 48.112031 -81.261284 
L 50.477044 -86.633911 
L 53.993927 -92.399095 
L 58.757257 -94.982262 
L 65.226584 -99.549033 
L 75.639969 -105.495132 
L 92.381139 -108.884457 
L 225.30858 -116.236893 
L 225.30858 -123.451167 
L 225.30858 -123.451167 
L 92.381139 -118.445975 
L 75.639969 -115.111667 
L 65.226584 -111.650744 
L 58.757257 -108.563069 
L 53.993927 -105.621214 
L 50.477044 -102.499926 
L 48.112031 -99.161663 
L 45.747019 -95.643411 
L 42.182551 -79.42363 
z
" style="stroke: #000000; stroke-opacity: 0.3"/>
    </defs>
    <g clip-path="url(#pc78eea404d)">
     <use xlink:href="#me8fe4d60b6" x="0" y="141.732283" style="fill-opacity: 0.3; stroke: #000000; stroke-opacity: 0.3"/>
    </g>
   </g>
   <g id="PathCollection_2">
    <defs>
     <path id="m3a0a67aa4a" d="M 0 2.236068 
C 0.593012 2.236068 1.161816 2.000462 1.581139 1.581139 
C 2.000462 1.161816 2.236068 0.593012 2.236068 0 
C 2.236068 -0.593012 2.000462 -1.161816 1.581139 -1.581139 
C 1.161816 -2.000462 0.593012 -2.236068 0 -2.236068 
C -0.593012 -2.236068 -1.161816 -2.000462 -1.581139 -1.581139 
C -2.000462 -1.161816 -2.236068 -0.593012 -2.236068 0 
C -2.236068 0.593012 -2.000462 1.161816 -1.581139 1.581139 
C -1.161816 2.000462 -0.593012 2.236068 0 2.236068 
z
" style="stroke: #000000; stroke-opacity: 0.35"/>
    </defs>
    <g clip-path="url(#pc78eea404d)">
     <use xlink:href="#m3a0a67aa4a" x="42.182551" y="68.560383" style="fill-opacity: 0.35; stroke: #000000; stroke-opacity: 0.35"/>
     <use xlink:href="#m3a0a67aa4a" x="45.747019" y="54.934908" style="fill-opacity: 0.35; stroke: #000000; stroke-opacity: 0.35"/>
     <use xlink:href="#m3a0a67aa4a" x="48.112031" y="50.385419" style="fill-opacity: 0.35; stroke: #000000; stroke-opacity: 0.35"/>
     <use xlink:href="#m3a0a67aa4a" x="50.477044" y="46.550452" style="fill-opacity: 0.35; stroke: #000000; stroke-opacity: 0.35"/>
     <use xlink:href="#m3a0a67aa4a" x="53.993927" y="42.12269" style="fill-opacity: 0.35; stroke: #000000; stroke-opacity: 0.35"/>
     <use xlink:href="#m3a0a67aa4a" x="58.757257" y="39.577027" style="fill-opacity: 0.35; stroke: #000000; stroke-opacity: 0.35"/>
     <use xlink:href="#m3a0a67aa4a" x="65.226584" y="35.361985" style="fill-opacity: 0.35; stroke: #000000; stroke-opacity: 0.35"/>
     <use xlink:href="#m3a0a67aa4a" x="75.639969" y="31.023847" style="fill-opacity: 0.35; stroke: #000000; stroke-opacity: 0.35"/>
     <use xlink:href="#m3a0a67aa4a" x="92.381139" y="27.964553" style="fill-opacity: 0.35; stroke: #000000; stroke-opacity: 0.35"/>
     <use xlink:href="#m3a0a67aa4a" x="225.30858" y="21.686394" style="fill-opacity: 0.35; stroke: #000000; stroke-opacity: 0.35"/>
    </g>
   </g>
   <g id="matplotlib.axis_1">
    <g id="xtick_1">
     <g id="line2d_1">
      <defs>
       <path id="m9454e047c1" d="M 0 0 
L 0 3 
" style="stroke: #000000; stroke-width: 0.6"/>
      </defs>
      <g>
       <use xlink:href="#m9454e047c1" x="36.286969" y="116.232283" style="stroke: #000000; stroke-width: 0.6"/>
      </g>
     </g>
     <g id="text_1">
      <text style="font-size: 6px; font-family: 'Arial'; text-anchor: middle" x="36.286969" y="127.026971" transform="rotate(-0 36.286969 127.026971)">0</text>
     </g>
    </g>
    <g id="xtick_2">
     <g id="line2d_2">
      <g>
       <use xlink:href="#m9454e047c1" x="59.937093" y="116.232283" style="stroke: #000000; stroke-width: 0.6"/>
      </g>
     </g>
     <g id="text_2">
      <text style="font-size: 6px; font-family: 'Arial'; text-anchor: middle" x="59.937093" y="127.026971" transform="rotate(-0 59.937093 127.026971)">10</text>
     </g>
    </g>
    <g id="xtick_3">
     <g id="line2d_3">
      <g>
       <use xlink:href="#m9454e047c1" x="83.587218" y="116.232283" style="stroke: #000000; stroke-width: 0.6"/>
      </g>
     </g>
     <g id="text_3">
      <text style="font-size: 6px; font-family: 'Arial'; text-anchor: middle" x="83.587218" y="127.026971" transform="rotate(-0 83.587218 127.026971)">20</text>
     </g>
    </g>
    <g id="xtick_4">
     <g id="line2d_4">
      <g>
       <use xlink:href="#m9454e047c1" x="107.237342" y="116.232283" style="stroke: #000000; stroke-width: 0.6"/>
      </g>
     </g>
     <g id="text_4">
      <text style="font-size: 6px; font-family: 'Arial'; text-anchor: middle" x="107.237342" y="127.026971" transform="rotate(-0 107.237342 127.026971)">30</text>
     </g>
    </g>
    <g id="xtick_5">
     <g id="line2d_5">
      <g>
       <use xlink:href="#m9454e047c1" x="130.887466" y="116.232283" style="stroke: #000000; stroke-width: 0.6"/>
      </g>
     </g>
     <g id="text_5">
      <text style="font-size: 6px; font-family: 'Arial'; text-anchor: middle" x="130.887466" y="127.026971" transform="rotate(-0 130.887466 127.026971)">40</text>
     </g>
    </g>
    <g id="xtick_6">
     <g id="line2d_6">
      <g>
       <use xlink:href="#m9454e047c1" x="154.53759" y="116.232283" style="stroke: #000000; stroke-width: 0.6"/>
      </g>
     </g>
     <g id="text_6">
      <text style="font-size: 6px; font-family: 'Arial'; text-anchor: middle" x="154.53759" y="127.026971" transform="rotate(-0 154.53759 127.026971)">50</text>
     </g>
    </g>
    <g id="xtick_7">
     <g id="line2d_7">
      <g>
       <use xlink:href="#m9454e047c1" x="178.187714" y="116.232283" style="stroke: #000000; stroke-width: 0.6"/>
      </g>
     </g>
     <g id="text_7">
      <text style="font-size: 6px; font-family: 'Arial'; text-anchor: middle" x="178.187714" y="127.026971" transform="rotate(-0 178.187714 127.026971)">60</text>
     </g>
    </g>
    <g id="xtick_8">
     <g id="line2d_8">
      <g>
       <use xlink:href="#m9454e047c1" x="201.837838" y="116.232283" style="stroke: #000000; stroke-width: 0.6"/>
      </g>
     </g>
     <g id="text_8">
      <text style="font-size: 6px; font-family: 'Arial'; text-anchor: middle" x="201.837838" y="127.026971" transform="rotate(-0 201.837838 127.026971)">70</text>
     </g>
    </g>
    <g id="xtick_9">
     <g id="line2d_9">
      <g>
       <use xlink:href="#m9454e047c1" x="225.487963" y="116.232283" style="stroke: #000000; stroke-width: 0.6"/>
      </g>
     </g>
     <g id="text_9">
      <text style="font-size: 6px; font-family: 'Arial'; text-anchor: middle" x="225.487963" y="127.026971" transform="rotate(-0 225.487963 127.026971)">80</text>
     </g>
    </g>
    <g id="text_10">
     <text style="font-weight: 700; font-size: 8px; font-family: 'Arial'; text-anchor: middle" x="133.745566" y="134.945721" transform="rotate(-0 133.745566 134.945721)">Number of NWASP localizations</text>
    </g>
   </g>
   <g id="matplotlib.axis_2">
    <g id="ytick_1">
     <g id="line2d_10">
      <defs>
       <path id="m7d505d0930" d="M 0 0 
L -3 0 
" style="stroke: #000000; stroke-width: 0.6"/>
      </defs>
      <g>
       <use xlink:href="#m7d505d0930" x="33.02625" y="116.232283" style="stroke: #000000; stroke-width: 0.6"/>
      </g>
     </g>
     <g id="text_11">
      <text style="font-size: 6px; font-family: 'Arial'; text-anchor: end" x="26.52625" y="118.379627" transform="rotate(-0 26.52625 118.379627)">0.00</text>
     </g>
    </g>
    <g id="ytick_2">
     <g id="line2d_11">
      <g>
       <use xlink:href="#m7d505d0930" x="33.02625" y="102.480327" style="stroke: #000000; stroke-width: 0.6"/>
      </g>
     </g>
     <g id="text_12">
      <text style="font-size: 6px; font-family: 'Arial'; text-anchor: end" x="26.52625" y="104.627671" transform="rotate(-0 26.52625 104.627671)">0.20</text>
     </g>
    </g>
    <g id="ytick_3">
     <g id="line2d_12">
      <g>
       <use xlink:href="#m7d505d0930" x="33.02625" y="88.728372" style="stroke: #000000; stroke-width: 0.6"/>
      </g>
     </g>
     <g id="text_13">
      <text style="font-size: 6px; font-family: 'Arial'; text-anchor: end" x="26.52625" y="90.875715" transform="rotate(-0 26.52625 90.875715)">0.40</text>
     </g>
    </g>
    <g id="ytick_4">
     <g id="line2d_13">
      <g>
       <use xlink:href="#m7d505d0930" x="33.02625" y="74.976416" style="stroke: #000000; stroke-width: 0.6"/>
      </g>
     </g>
     <g id="text_14">
      <text style="font-size: 6px; font-family: 'Arial'; text-anchor: end" x="26.52625" y="77.123759" transform="rotate(-0 26.52625 77.123759)">0.60</text>
     </g>
    </g>
    <g id="ytick_5">
     <g id="line2d_14">
      <g>
       <use xlink:href="#m7d505d0930" x="33.02625" y="61.22446" style="stroke: #000000; stroke-width: 0.6"/>
      </g>
     </g>
     <g id="text_15">
      <text style="font-size: 6px; font-family: 'Arial'; text-anchor: end" x="26.52625" y="63.371803" transform="rotate(-0 26.52625 63.371803)">0.80</text>
     </g>
    </g>
    <g id="ytick_6">
     <g id="line2d_15">
      <g>
       <use xlink:href="#m7d505d0930" x="33.02625" y="47.472504" style="stroke: #000000; stroke-width: 0.6"/>
      </g>
     </g>
     <g id="text_16">
      <text style="font-size: 6px; font-family: 'Arial'; text-anchor: end" x="26.52625" y="49.619847" transform="rotate(-0 26.52625 49.619847)">1.00</text>
     </g>
    </g>
    <g id="ytick_7">
     <g id="line2d_16">
      <g>
       <use xlink:href="#m7d505d0930" x="33.02625" y="33.720548" style="stroke: #000000; stroke-width: 0.6"/>
      </g>
     </g>
     <g id="text_17">
      <text style="font-size: 6px; font-family: 'Arial'; text-anchor: end" x="26.52625" y="35.867891" transform="rotate(-0 26.52625 35.867891)">1.20</text>
     </g>
    </g>
    <g id="ytick_8">
     <g id="line2d_17">
      <g>
       <use xlink:href="#m7d505d0930" x="33.02625" y="19.968592" style="stroke: #000000; stroke-width: 0.6"/>
      </g>
     </g>
     <g id="text_18">
      <text style="font-size: 6px; font-family: 'Arial'; text-anchor: end" x="26.52625" y="22.115935" transform="rotate(-0 26.52625 22.115935)">1.40</text>
     </g>
    </g>
    <g id="ytick_9">
     <g id="line2d_18">
      <g>
       <use xlink:href="#m7d505d0930" x="33.02625" y="8.279429" style="stroke: #000000; stroke-width: 0.6"/>
      </g>
     </g>
     <g id="text_19">
      <text style="font-size: 6px; font-family: 'Arial'; text-anchor: end" x="26.52625" y="10.426773" transform="rotate(-0 26.52625 10.426773)">1.57</text>
     </g>
    </g>
    <g id="text_20">
     <text style="font-weight: 700; font-size: 8px; font-family: 'Arial'; text-anchor: middle" x="12.165938" y="62.228479" transform="rotate(-90 12.165938 62.228479)">NWASP uniformity (rad)</text>
    </g>
   </g>
   <g id="line2d_19">
    <path d="M 42.182551 73.299625 
L 45.747019 64.133961 
L 48.112031 58.067132 
L 50.477044 57.287186 
L 53.993927 54.026531 
L 58.757257 49.636997 
L 65.226584 52.548639 
L 75.639969 47.400964 
L 92.381139 48.254007 
L 225.30858 45.977343 
" clip-path="url(#pc78eea404d)" style="fill: none; stroke: #008080; stroke-width: 1.5; stroke-linecap: square"/>
   </g>
   <g id="line2d_20">
    <path d="M 42.182551 68.560383 
L 45.747019 54.934908 
L 48.112031 50.385419 
L 50.477044 46.550452 
L 53.993927 42.12269 
L 58.757257 39.577027 
L 65.226584 35.361985 
L 75.639969 31.023847 
L 92.381139 27.964553 
L 225.30858 21.686394 
" clip-path="url(#pc78eea404d)" style="fill: none; stroke: #000000; stroke-width: 1.5; stroke-linecap: square"/>
   </g>
   <g id="patch_3">
    <path d="M 33.02625 116.232283 
L 33.02625 8.224674 
" style="fill: none; stroke: #000000; stroke-width: 0.6; stroke-linejoin: miter; stroke-linecap: square"/>
   </g>
   <g id="patch_4">
    <path d="M 33.02625 116.232283 
L 234.464882 116.232283 
" style="fill: none; stroke: #000000; stroke-width: 0.6; stroke-linejoin: miter; stroke-linecap: square"/>
   </g>
   <g id="legend_1">
    <g id="patch_5">
     <path d="M 132.032694 113.232283 
L 230.264882 113.232283 
Q 231.464882 113.232283 231.464882 112.032283 
L 231.464882 95.657908 
Q 231.464882 94.457908 230.264882 94.457908 
L 132.032694 94.457908 
Q 130.832694 94.457908 130.832694 95.657908 
L 130.832694 112.032283 
Q 130.832694 113.232283 132.032694 113.232283 
z
" style="fill: #ffffff; opacity: 0.8; stroke: #cccccc; stroke-linejoin: miter"/>
    </g>
    <g id="line2d_21">
     <path d="M 133.232694 99.052596 
L 139.232694 99.052596 
L 145.232694 99.052596 
" style="fill: none; stroke: #008080; stroke-width: 1.5; stroke-linecap: square"/>
    </g>
    <g id="text_21">
     <text style="font-size: 6px; font-family: 'Arial'; text-anchor: start" x="150.032694" y="101.152596" transform="rotate(-0 150.032694 101.152596)">NWASP</text>
    </g>
    <g id="line2d_22">
     <path d="M 133.232694 107.539783 
L 139.232694 107.539783 
L 145.232694 107.539783 
" style="fill: none; stroke: #000000; stroke-width: 1.5; stroke-linecap: square"/>
    </g>
    <g id="text_22">
     <text style="font-size: 6px; font-family: 'Arial'; text-anchor: start" x="150.032694" y="109.639783" transform="rotate(-0 150.032694 109.639783)">Simulated uniform distribution</text>
    </g>
   </g>
  </g>
 </g>
 <defs>
  <clipPath id="pc78eea404d">
   <rect x="33.02625" y="8.224674" width="201.438632" height="108.00761"/>
  </clipPath>
 </defs>
</svg>
