<?xml version="1.0" encoding="utf-8" standalone="no"?>
<!DOCTYPE svg PUBLIC "-//W3C//DTD SVG 1.1//EN"
  "http://www.w3.org/Graphics/SVG/1.1/DTD/svg11.dtd">
<svg xmlns:xlink="http://www.w3.org/1999/xlink" width="240.944882pt" height="184.251969pt" viewBox="0 0 240.944882 184.251969" xmlns="http://www.w3.org/2000/svg" version="1.1">
 <metadata>
  <rdf:RDF xmlns:dc="http://purl.org/dc/elements/1.1/" xmlns:cc="http://creativecommons.org/ns#" xmlns:rdf="http://www.w3.org/1999/02/22-rdf-syntax-ns#">
   <cc:Work>
    <dc:type rdf:resource="http://purl.org/dc/dcmitype/StillImage"/>
    <dc:date>2026-09-10T15:12:57.522441</dc:date>
    <dc:format>image/svg+xml</dc:format>
    <dc:creator>
     <cc:Agent>
      <dc:title>Matplotlib v3.10.0, https://matplotlib.org/</dc:title>
     </cc:Agent>
    </dc:creator>
   </cc:Work>
  </rdf:RDF>
 </metadata>
 <defs>
  <style type="text/css">*{stroke-linejoin: round; stroke-linecap: butt}</style>
 </defs>
 <g id="figure_1">
  <g id="patch_1">
   <path d="M 0 184.251969 
L 240.944882 184.251969 
L 240.944882 0 
L 0 0 
L 0 184.251969 
z
" style="fill: none"/>
  </g>
  <g id="axes_1">
   <g id="patch_2">
    <path d="M 29.69625 158.695719 
L 234.464882 158.695719 
L 234.464882 6.48 
L 29.69625 6.48 
L 29.69625 158.695719 
z
" style="fill: none"/>
   </g>
   <g id="FillBetweenPolyCollection_1">
    <defs>
     <path id="m974c22f3c7" d="M 41.928499 -143.14187 
L 41.928499 -107.998616 
L 55.150984 -111.184338 
L 65.951254 -107.506884 
L 75.959475 -108.038021 
L 86.440606 -109.414469 
L 99.309456 -114.264837 
L 113.881487 -111.587502 
L 134.527996 -111.124507 
L 163.554474 -114.666902 
L 225.157217 -113.839259 
L 225.157217 -152.010893 
L 225.157217 -152.010893 
L 163.554474 -146.624623 
L 134.527996 -144.798198 
L 113.881487 -148.499634 
L 99.309456 -149.180688 
L 86.440606 -148.058713 
L 75.959475 -147.162325 
L 65.951254 -140.854792 
L 55.150984 -139.446425 
L 41.928499 -143.14187 
z
" style="stroke: #ff1493; stroke-opacity: 0.3"/>
    </defs>
    <g clip-path="url(#p80ece120a3)">
     <use xlink:href="#m974c22f3c7" x="0" y="184.251969" style="fill: #ff1493; fill-opacity: 0.3; stroke: #ff1493; stroke-opacity: 0.3"/>
    </g>
   </g>
   <g id="PathCollection_1">
    <defs>
     <path id="m8878a5663b" d="M 0 2.236068 
C 0.593012 2.236068 1.161816 2.000462 1.581139 1.581139 
C 2.000462 1.161816 2.236068 0.593012 2.236068 0 
C 2.236068 -0.593012 2.000462 -1.161816 1.581139 -1.581139 
C 1.161816 -2.000462 0.593012 -2.236068 0 -2.236068 
C -0.593012 -2.236068 -1.161816 -2.000462 -1.581139 -1.581139 
C -2.000462 -1.161816 -2.236068 -0.593012 -2.236068 0 
C -2.236068 0.593012 -2.000462 1.161816 -1.581139 1.581139 
C -1.161816 2.000462 -0.593012 2.236068 0 2.236068 
z
" style="stroke: #ff1493; stroke-opacity: 0.35"/>
    </defs>
    <g clip-path="url(#p80ece120a3)">
     <use xlink:href="#m8878a5663b" x="41.928499" y="56.956979" style="fill: #ff1493; fill-opacity: 0.35; stroke: #ff1493; stroke-opacity: 0.35"/>
     <use xlink:href="#m8878a5663b" x="55.150984" y="60.725408" style="fill: #ff1493; fill-opacity: 0.35; stroke: #ff1493; stroke-opacity: 0.35"/>
     <use xlink:href="#m8878a5663b" x="65.951254" y="60.139683" style="fill: #ff1493; fill-opacity: 0.35; stroke: #ff1493; stroke-opacity: 0.35"/>
     <use xlink:href="#m8878a5663b" x="75.959475" y="55.050015" style="fill: #ff1493; fill-opacity: 0.35; stroke: #ff1493; stroke-opacity: 0.35"/>
     <use xlink:href="#m8878a5663b" x="86.440606" y="54.044633" style="fill: #ff1493; fill-opacity: 0.35; stroke: #ff1493; stroke-opacity: 0.35"/>
     <use xlink:href="#m8878a5663b" x="99.309456" y="50.100858" style="fill: #ff1493; fill-opacity: 0.35; stroke: #ff1493; stroke-opacity: 0.35"/>
     <use xlink:href="#m8878a5663b" x="113.881487" y="51.006783" style="fill: #ff1493; fill-opacity: 0.35; stroke: #ff1493; stroke-opacity: 0.35"/>
     <use xlink:href="#m8878a5663b" x="134.527996" y="53.1157" style="fill: #ff1493; fill-opacity: 0.35; stroke: #ff1493; stroke-opacity: 0.35"/>
     <use xlink:href="#m8878a5663b" x="163.554474" y="50.838945" style="fill: #ff1493; fill-opacity: 0.35; stroke: #ff1493; stroke-opacity: 0.35"/>
     <use xlink:href="#m8878a5663b" x="225.157217" y="45.224493" style="fill: #ff1493; fill-opacity: 0.35; stroke: #ff1493; stroke-opacity: 0.35"/>
    </g>
   </g>
   <g id="FillBetweenPolyCollection_2">
    <defs>
     <path id="me9267fe9df" d="M 39.003915 -146.947482 
L 39.003915 -119.283132 
L 50.982811 -118.688227 
L 58.569307 -121.310456 
L 66.037622 -118.369733 
L 74.01677 -117.634696 
L 83.878382 -119.294372 
L 95.781771 -119.081314 
L 111.765141 -122.808828 
L 134.650701 -119.677712 
L 191.219521 -127.270648 
L 191.219521 -155.262083 
L 191.219521 -155.262083 
L 134.650701 -153.487414 
L 111.765141 -150.104727 
L 95.781771 -150.873438 
L 83.878382 -148.283464 
L 74.01677 -146.901281 
L 66.037622 -147.760541 
L 58.569307 -147.564041 
L 50.982811 -145.234173 
L 39.003915 -146.947482 
z
" style="stroke: #808080; stroke-opacity: 0.3"/>
    </defs>
    <g clip-path="url(#p80ece120a3)">
     <use xlink:href="#me9267fe9df" x="0" y="184.251969" style="fill: #808080; fill-opacity: 0.3; stroke: #808080; stroke-opacity: 0.3"/>
    </g>
   </g>
   <g id="PathCollection_2">
    <defs>
     <path id="m1e2103bb73" d="M 0 2.236068 
C 0.593012 2.236068 1.161816 2.000462 1.581139 1.581139 
C 2.000462 1.161816 2.236068 0.593012 2.236068 0 
C 2.236068 -0.593012 2.000462 -1.161816 1.581139 -1.581139 
C 1.161816 -2.000462 0.593012 -2.236068 0 -2.236068 
C -0.593012 -2.236068 -1.161816 -2.000462 -1.581139 -1.581139 
C -2.000462 -1.161816 -2.236068 -0.593012 -2.236068 0 
C -2.236068 0.593012 -2.000462 1.161816 -1.581139 1.581139 
C -1.161816 2.000462 -0.593012 2.236068 0 2.236068 
z
" style="stroke: #808080; stroke-opacity: 0.35"/>
    </defs>
    <g clip-path="url(#p80ece120a3)">
     <use xlink:href="#m1e2103bb73" x="39.003915" y="48.831654" style="fill: #808080; fill-opacity: 0.35; stroke: #808080; stroke-opacity: 0.35"/>
     <use xlink:href="#m1e2103bb73" x="50.982811" y="51.80826" style="fill: #808080; fill-opacity: 0.35; stroke: #808080; stroke-opacity: 0.35"/>
     <use xlink:href="#m1e2103bb73" x="58.569307" y="51.305939" style="fill: #808080; fill-opacity: 0.35; stroke: #808080; stroke-opacity: 0.35"/>
     <use xlink:href="#m1e2103bb73" x="66.037622" y="49.371011" style="fill: #808080; fill-opacity: 0.35; stroke: #808080; stroke-opacity: 0.35"/>
     <use xlink:href="#m1e2103bb73" x="74.01677" y="48.995851" style="fill: #808080; fill-opacity: 0.35; stroke: #808080; stroke-opacity: 0.35"/>
     <use xlink:href="#m1e2103bb73" x="83.878382" y="46.634932" style="fill: #808080; fill-opacity: 0.35; stroke: #808080; stroke-opacity: 0.35"/>
     <use xlink:href="#m1e2103bb73" x="95.781771" y="48.038748" style="fill: #808080; fill-opacity: 0.35; stroke: #808080; stroke-opacity: 0.35"/>
     <use xlink:href="#m1e2103bb73" x="111.765141" y="46.18428" style="fill: #808080; fill-opacity: 0.35; stroke: #808080; stroke-opacity: 0.35"/>
     <use xlink:href="#m1e2103bb73" x="134.650701" y="45.040541" style="fill: #808080; fill-opacity: 0.35; stroke: #808080; stroke-opacity: 0.35"/>
     <use xlink:href="#m1e2103bb73" x="191.219521" y="39.18436" style="fill: #808080; fill-opacity: 0.35; stroke: #808080; stroke-opacity: 0.35"/>
    </g>
   </g>
   <g id="matplotlib.axis_1">
    <g id="xtick_1">
     <g id="line2d_1">
      <defs>
       <path id="m9b40ee0987" d="M 0 0 
L 0 3 
" style="stroke: #000000; stroke-width: 0.6"/>
      </defs>
      <g>
       <use xlink:href="#m9b40ee0987" x="63.574389" y="158.695719" style="stroke: #000000; stroke-width: 0.6"/>
      </g>
     </g>
     <g id="text_1">
      <text style="font-size: 6px; font-family: 'Arial'; text-anchor: middle" x="63.574389" y="169.490406" transform="rotate(-0 63.574389 169.490406)">2</text>
     </g>
    </g>
    <g id="xtick_2">
     <g id="line2d_2">
      <g>
       <use xlink:href="#m9b40ee0987" x="98.110854" y="158.695719" style="stroke: #000000; stroke-width: 0.6"/>
      </g>
     </g>
     <g id="text_2">
      <text style="font-size: 6px; font-family: 'Arial'; text-anchor: middle" x="98.110854" y="169.490406" transform="rotate(-0 98.110854 169.490406)">3</text>
     </g>
    </g>
    <g id="xtick_3">
     <g id="line2d_3">
      <g>
       <use xlink:href="#m9b40ee0987" x="132.647319" y="158.695719" style="stroke: #000000; stroke-width: 0.6"/>
      </g>
     </g>
     <g id="text_3">
      <text style="font-size: 6px; font-family: 'Arial'; text-anchor: middle" x="132.647319" y="169.490406" transform="rotate(-0 132.647319 169.490406)">4</text>
     </g>
    </g>
    <g id="xtick_4">
     <g id="line2d_4">
      <g>
       <use xlink:href="#m9b40ee0987" x="167.183785" y="158.695719" style="stroke: #000000; stroke-width: 0.6"/>
      </g>
     </g>
     <g id="text_4">
      <text style="font-size: 6px; font-family: 'Arial'; text-anchor: middle" x="167.183785" y="169.490406" transform="rotate(-0 167.183785 169.490406)">5</text>
     </g>
    </g>
    <g id="xtick_5">
     <g id="line2d_5">
      <g>
       <use xlink:href="#m9b40ee0987" x="201.72025" y="158.695719" style="stroke: #000000; stroke-width: 0.6"/>
      </g>
     </g>
     <g id="text_5">
      <text style="font-size: 6px; font-family: 'Arial'; text-anchor: middle" x="201.72025" y="169.490406" transform="rotate(-0 201.72025 169.490406)">6</text>
     </g>
    </g>
    <g id="text_6">
     <text style="font-weight: 700; font-size: 8px; font-family: 'Arial'; text-anchor: middle" x="132.080566" y="177.506656" transform="rotate(-0 132.080566 177.506656)">Clathrin aspect ratio (z/x)</text>
    </g>
   </g>
   <g id="matplotlib.axis_2">
    <g id="ytick_1">
     <g id="line2d_6">
      <defs>
       <path id="mc0bbe102fc" d="M 0 0 
L -3 0 
" style="stroke: #000000; stroke-width: 0.6"/>
      </defs>
      <g>
       <use xlink:href="#mc0bbe102fc" x="29.69625" y="158.695719" style="stroke: #000000; stroke-width: 0.6"/>
      </g>
     </g>
     <g id="text_7">
      <text style="font-size: 6px; font-family: 'Arial'; text-anchor: end" x="23.19625" y="160.843062" transform="rotate(-0 23.19625 160.843062)">0.0</text>
     </g>
    </g>
    <g id="ytick_2">
     <g id="line2d_7">
      <g>
       <use xlink:href="#mc0bbe102fc" x="29.69625" y="139.315011" style="stroke: #000000; stroke-width: 0.6"/>
      </g>
     </g>
     <g id="text_8">
      <text style="font-size: 6px; font-family: 'Arial'; text-anchor: end" x="23.19625" y="141.462355" transform="rotate(-0 23.19625 141.462355)">0.2</text>
     </g>
    </g>
    <g id="ytick_3">
     <g id="line2d_8">
      <g>
       <use xlink:href="#mc0bbe102fc" x="29.69625" y="119.934304" style="stroke: #000000; stroke-width: 0.6"/>
      </g>
     </g>
     <g id="text_9">
      <text style="font-size: 6px; font-family: 'Arial'; text-anchor: end" x="23.19625" y="122.081648" transform="rotate(-0 23.19625 122.081648)">0.4</text>
     </g>
    </g>
    <g id="ytick_4">
     <g id="line2d_9">
      <g>
       <use xlink:href="#mc0bbe102fc" x="29.69625" y="100.553597" style="stroke: #000000; stroke-width: 0.6"/>
      </g>
     </g>
     <g id="text_10">
      <text style="font-size: 6px; font-family: 'Arial'; text-anchor: end" x="23.19625" y="102.700941" transform="rotate(-0 23.19625 102.700941)">0.6</text>
     </g>
    </g>
    <g id="ytick_5">
     <g id="line2d_10">
      <g>
       <use xlink:href="#mc0bbe102fc" x="29.69625" y="81.17289" style="stroke: #000000; stroke-width: 0.6"/>
      </g>
     </g>
     <g id="text_11">
      <text style="font-size: 6px; font-family: 'Arial'; text-anchor: end" x="23.19625" y="83.320233" transform="rotate(-0 23.19625 83.320233)">0.8</text>
     </g>
    </g>
    <g id="ytick_6">
     <g id="line2d_11">
      <g>
       <use xlink:href="#mc0bbe102fc" x="29.69625" y="61.792182" style="stroke: #000000; stroke-width: 0.6"/>
      </g>
     </g>
     <g id="text_12">
      <text style="font-size: 6px; font-family: 'Arial'; text-anchor: end" x="23.19625" y="63.939526" transform="rotate(-0 23.19625 63.939526)">1.0</text>
     </g>
    </g>
    <g id="ytick_7">
     <g id="line2d_12">
      <g>
       <use xlink:href="#mc0bbe102fc" x="29.69625" y="42.411475" style="stroke: #000000; stroke-width: 0.6"/>
      </g>
     </g>
     <g id="text_13">
      <text style="font-size: 6px; font-family: 'Arial'; text-anchor: end" x="23.19625" y="44.558819" transform="rotate(-0 23.19625 44.558819)">1.2</text>
     </g>
    </g>
    <g id="ytick_8">
     <g id="line2d_13">
      <g>
       <use xlink:href="#mc0bbe102fc" x="29.69625" y="23.030768" style="stroke: #000000; stroke-width: 0.6"/>
      </g>
     </g>
     <g id="text_14">
      <text style="font-size: 6px; font-family: 'Arial'; text-anchor: end" x="23.19625" y="25.178112" transform="rotate(-0 23.19625 25.178112)">1.4</text>
     </g>
    </g>
    <g id="text_15">
     <text style="font-weight: 700; font-size: 8px; font-family: 'Arial'; text-anchor: middle" x="12.1725" y="82.587859" transform="rotate(-90 12.1725 82.587859)">Actin uniformity (rad)</text>
    </g>
   </g>
   <g id="line2d_14">
    <path d="M 41.928499 56.956979 
L 55.150984 60.725408 
L 65.951254 60.139683 
L 75.959475 55.050015 
L 86.440606 54.044633 
L 99.309456 50.100858 
L 113.881487 51.006783 
L 134.527996 53.1157 
L 163.554474 50.838945 
L 225.157217 45.224493 
" clip-path="url(#p80ece120a3)" style="fill: none; stroke: #ff1493; stroke-width: 1.5; stroke-linecap: square"/>
   </g>
   <g id="line2d_15">
    <path d="M 39.003915 48.831654 
L 50.982811 51.80826 
L 58.569307 51.305939 
L 66.037622 49.371011 
L 74.01677 48.995851 
L 83.878382 46.634932 
L 95.781771 48.038748 
L 111.765141 46.18428 
L 134.650701 45.040541 
L 191.219521 39.18436 
" clip-path="url(#p80ece120a3)" style="fill: none; stroke: #808080; stroke-width: 1.5; stroke-linecap: square"/>
   </g>
   <g id="patch_3">
    <path d="M 29.69625 158.695719 
L 29.69625 6.48 
" style="fill: none; stroke: #000000; stroke-width: 0.6; stroke-linejoin: miter; stroke-linecap: square"/>
   </g>
   <g id="patch_4">
    <path d="M 29.69625 158.695719 
L 234.464882 158.695719 
" style="fill: none; stroke: #000000; stroke-width: 0.6; stroke-linejoin: miter; stroke-linecap: square"/>
   </g>
   <g id="legend_1">
    <g id="patch_5">
     <path d="M 173.376444 28.324688 
L 230.264882 28.324688 
Q 231.464882 28.324688 231.464882 27.124688 
L 231.464882 10.68 
Q 231.464882 9.48 230.264882 9.48 
L 173.376444 9.48 
Q 172.176444 9.48 172.176444 10.68 
L 172.176444 27.124688 
Q 172.176444 28.324688 173.376444 28.324688 
z
" style="fill: #ffffff; opacity: 0.8; stroke: #cccccc; stroke-linejoin: miter"/>
    </g>
    <g id="line2d_16">
     <path d="M 174.576444 14.074688 
L 180.576444 14.074688 
L 186.576444 14.074688 
" style="fill: none; stroke: #ff1493; stroke-width: 1.5; stroke-linecap: square"/>
    </g>
    <g id="text_16">
     <text style="font-size: 6px; font-family: 'Arial'; text-anchor: start" x="191.376444" y="16.174688" transform="rotate(-0 191.376444 16.174688)">Actin positive</text>
    </g>
    <g id="line2d_17">
     <path d="M 174.576444 22.561875 
L 180.576444 22.561875 
L 186.576444 22.561875 
" style="fill: none; stroke: #808080; stroke-width: 1.5; stroke-linecap: square"/>
    </g>
    <g id="text_17">
     <text style="font-size: 6px; font-family: 'Arial'; text-anchor: start" x="191.376444" y="24.661875" transform="rotate(-0 191.376444 24.661875)">Actin negative</text>
    </g>
   </g>
  </g>
 </g>
 <defs>
  <clipPath id="p80ece120a3">
   <rect x="29.69625" y="6.48" width="204.768632" height="152.215719"/>
  </clipPath>
 </defs>
</svg>
