<?xml version="1.0" encoding="utf-8" standalone="no"?>
<!DOCTYPE svg PUBLIC "-//W3C//DTD SVG 1.1//EN"
  "http://www.w3.org/Graphics/SVG/1.1/DTD/svg11.dtd">
<svg xmlns:xlink="http://www.w3.org/1999/xlink" width="240.944882pt" height="184.251969pt" viewBox="0 0 240.944882 184.251969" xmlns="http://www.w3.org/2000/svg" version="1.1">
 <metadata>
  <rdf:RDF xmlns:dc="http://purl.org/dc/elements/1.1/" xmlns:cc="http://creativecommons.org/ns#" xmlns:rdf="http://www.w3.org/1999/02/22-rdf-syntax-ns#">
   <cc:Work>
    <dc:type rdf:resource="http://purl.org/dc/dcmitype/StillImage"/>
    <dc:date>2026-08-25T22:19:15.603439</dc:date>
    <dc:format>image/svg+xml</dc:format>
    <dc:creator>
     <cc:Agent>
      <dc:title>Matplotlib v3.10.0, https://matplotlib.org/</dc:title>
     </cc:Agent>
    </dc:creator>
   </cc:Work>
  </rdf:RDF>
 </metadata>
 <defs>
  <style type="text/css">*{stroke-linejoin: round; stroke-linecap: butt}</style>
 </defs>
 <g id="figure_1">
  <g id="patch_1">
   <path d="M 0 184.251969 
L 240.944882 184.251969 
L 240.944882 0 
L 0 0 
L 0 184.251969 
z
" style="fill: none"/>
  </g>
  <g id="axes_1">
   <g id="patch_2">
    <path d="M 33.02625 158.751969 
L 234.464882 158.751969 
L 234.464882 8.28 
L 33.02625 8.28 
L 33.02625 158.751969 
z
" style="fill: none"/>
   </g>
   <g id="FillBetweenPolyCollection_1">
    <defs>
     <path id="mf00ffb7726" d="M 65.581003 -126.060667 
L 65.581003 -86.304535 
L 73.247597 -89.787983 
L 82.611771 -87.982814 
L 96.6776 -91.734768 
L 115.232176 -101.624651 
L 144.506943 -111.533122 
L 225.30858 -116.710173 
L 225.30858 -147.542986 
L 225.30858 -147.542986 
L 144.506943 -144.429148 
L 115.232176 -137.021064 
L 96.6776 -126.539454 
L 82.611771 -116.729695 
L 73.247597 -113.160218 
L 65.581003 -126.060667 
z
" style="stroke: #ff1493; stroke-opacity: 0.3"/>
    </defs>
    <g clip-path="url(#p89e5b0f854)">
     <use xlink:href="#mf00ffb7726" x="0" y="184.251969" style="fill: #ff1493; fill-opacity: 0.3; stroke: #ff1493; stroke-opacity: 0.3"/>
    </g>
   </g>
   <g id="PathCollection_1">
    <defs>
     <path id="m93abc27879" d="M 0 2.236068 
C 0.593012 2.236068 1.161816 2.000462 1.581139 1.581139 
C 2.000462 1.161816 2.236068 0.593012 2.236068 0 
C 2.236068 -0.593012 2.000462 -1.161816 1.581139 -1.581139 
C 1.161816 -2.000462 0.593012 -2.236068 0 -2.236068 
C -0.593012 -2.236068 -1.161816 -2.000462 -1.581139 -1.581139 
C -2.000462 -1.161816 -2.236068 -0.593012 -2.236068 0 
C -2.236068 0.593012 -2.000462 1.161816 -1.581139 1.581139 
C -1.161816 2.000462 -0.593012 2.236068 0 2.236068 
z
" style="stroke: #ff1493; stroke-opacity: 0.35"/>
    </defs>
    <g clip-path="url(#p89e5b0f854)">
     <use xlink:href="#m93abc27879" x="65.581003" y="83.353692" style="fill: #ff1493; fill-opacity: 0.35; stroke: #ff1493; stroke-opacity: 0.35"/>
     <use xlink:href="#m93abc27879" x="73.247597" y="82.000269" style="fill: #ff1493; fill-opacity: 0.35; stroke: #ff1493; stroke-opacity: 0.35"/>
     <use xlink:href="#m93abc27879" x="82.611771" y="85.602162" style="fill: #ff1493; fill-opacity: 0.35; stroke: #ff1493; stroke-opacity: 0.35"/>
     <use xlink:href="#m93abc27879" x="96.6776" y="70.896826" style="fill: #ff1493; fill-opacity: 0.35; stroke: #ff1493; stroke-opacity: 0.35"/>
     <use xlink:href="#m93abc27879" x="115.232176" y="66.884725" style="fill: #ff1493; fill-opacity: 0.35; stroke: #ff1493; stroke-opacity: 0.35"/>
     <use xlink:href="#m93abc27879" x="144.506943" y="54.3591" style="fill: #ff1493; fill-opacity: 0.35; stroke: #ff1493; stroke-opacity: 0.35"/>
     <use xlink:href="#m93abc27879" x="225.30858" y="50.432729" style="fill: #ff1493; fill-opacity: 0.35; stroke: #ff1493; stroke-opacity: 0.35"/>
    </g>
   </g>
   <g id="FillBetweenPolyCollection_2">
    <defs>
     <path id="m932963b7cf" d="M 42.182551 -131.156238 
L 42.182551 -93.435359 
L 51.060552 -105.590343 
L 57.993911 -112.855056 
L 65.108445 -119.372104 
L 72.936491 -121.779845 
L 82.977269 -127.493489 
L 95.584638 -129.393289 
L 112.72236 -134.833859 
L 139.122154 -141.497764 
L 139.122154 -158.292017 
L 139.122154 -158.292017 
L 112.72236 -153.26262 
L 95.584638 -152.100872 
L 82.977269 -150.867271 
L 72.936491 -148.730103 
L 65.108445 -146.1807 
L 57.993911 -142.488072 
L 51.060552 -137.34266 
L 42.182551 -131.156238 
z
" style="stroke: #808080; stroke-opacity: 0.3"/>
    </defs>
    <g clip-path="url(#p89e5b0f854)">
     <use xlink:href="#m932963b7cf" x="0" y="184.251969" style="fill: #808080; fill-opacity: 0.3; stroke: #808080; stroke-opacity: 0.3"/>
    </g>
   </g>
   <g id="PathCollection_2">
    <defs>
     <path id="ma690626800" d="M 0 2.236068 
C 0.593012 2.236068 1.161816 2.000462 1.581139 1.581139 
C 2.000462 1.161816 2.236068 0.593012 2.236068 0 
C 2.236068 -0.593012 2.000462 -1.161816 1.581139 -1.581139 
C 1.161816 -2.000462 0.593012 -2.236068 0 -2.236068 
C -0.593012 -2.236068 -1.161816 -2.000462 -1.581139 -1.581139 
C -2.000462 -1.161816 -2.236068 -0.593012 -2.236068 0 
C -2.236068 0.593012 -2.000462 1.161816 -1.581139 1.581139 
C -1.161816 2.000462 -0.593012 2.236068 0 2.236068 
z
" style="stroke: #808080; stroke-opacity: 0.35"/>
    </defs>
    <g clip-path="url(#p89e5b0f854)">
     <use xlink:href="#ma690626800" x="42.182551" y="70.301332" style="fill: #808080; fill-opacity: 0.35; stroke: #808080; stroke-opacity: 0.35"/>
     <use xlink:href="#ma690626800" x="51.060552" y="58.481894" style="fill: #808080; fill-opacity: 0.35; stroke: #808080; stroke-opacity: 0.35"/>
     <use xlink:href="#ma690626800" x="57.993911" y="55.414659" style="fill: #808080; fill-opacity: 0.35; stroke: #808080; stroke-opacity: 0.35"/>
     <use xlink:href="#ma690626800" x="65.108445" y="48.291852" style="fill: #808080; fill-opacity: 0.35; stroke: #808080; stroke-opacity: 0.35"/>
     <use xlink:href="#ma690626800" x="72.936491" y="47.581435" style="fill: #808080; fill-opacity: 0.35; stroke: #808080; stroke-opacity: 0.35"/>
     <use xlink:href="#ma690626800" x="82.977269" y="42.409945" style="fill: #808080; fill-opacity: 0.35; stroke: #808080; stroke-opacity: 0.35"/>
     <use xlink:href="#ma690626800" x="95.584638" y="42.670039" style="fill: #808080; fill-opacity: 0.35; stroke: #808080; stroke-opacity: 0.35"/>
     <use xlink:href="#ma690626800" x="112.72236" y="38.274735" style="fill: #808080; fill-opacity: 0.35; stroke: #808080; stroke-opacity: 0.35"/>
     <use xlink:href="#ma690626800" x="139.122154" y="31.220102" style="fill: #808080; fill-opacity: 0.35; stroke: #808080; stroke-opacity: 0.35"/>
    </g>
   </g>
   <g id="FillBetweenPolyCollection_3">
    <defs>
     <path id="mee7772f164" d="M 42.182551 -159.558395 
L 42.182551 -145.086525 
L 51.060552 -160.186393 
L 58.003081 -163.567721 
L 65.120954 -165.108637 
L 72.948351 -166.741888 
L 82.945301 -167.534914 
L 95.804523 -168.390689 
L 113.892127 -169.519816 
L 143.486502 -170.383686 
L 224.653131 -171.581385 
L 224.653131 -173.261156 
L 224.653131 -173.261156 
L 143.486502 -172.410005 
L 113.892127 -171.754329 
L 95.804523 -171.148312 
L 82.945301 -170.679167 
L 72.948351 -170.11024 
L 65.120954 -168.968467 
L 58.003081 -167.746702 
L 51.060552 -166.090064 
L 42.182551 -159.558395 
z
" style="stroke: #000000; stroke-opacity: 0.3"/>
    </defs>
    <g clip-path="url(#p89e5b0f854)">
     <use xlink:href="#mee7772f164" x="0" y="184.251969" style="fill-opacity: 0.3; stroke: #000000; stroke-opacity: 0.3"/>
    </g>
   </g>
   <g id="PathCollection_3">
    <defs>
     <path id="mac12255c8a" d="M 0 2.236068 
C 0.593012 2.236068 1.161816 2.000462 1.581139 1.581139 
C 2.000462 1.161816 2.236068 0.593012 2.236068 0 
C 2.236068 -0.593012 2.000462 -1.161816 1.581139 -1.581139 
C 1.161816 -2.000462 0.593012 -2.236068 0 -2.236068 
C -0.593012 -2.236068 -1.161816 -2.000462 -1.581139 -1.581139 
C -2.000462 -1.161816 -2.236068 -0.593012 -2.236068 0 
C -2.236068 0.593012 -2.000462 1.161816 -1.581139 1.581139 
C -1.161816 2.000462 -0.593012 2.236068 0 2.236068 
z
" style="stroke: #000000; stroke-opacity: 0.35"/>
    </defs>
    <g clip-path="url(#p89e5b0f854)">
     <use xlink:href="#mac12255c8a" x="42.182551" y="31.171456" style="fill-opacity: 0.35; stroke: #000000; stroke-opacity: 0.35"/>
     <use xlink:href="#mac12255c8a" x="51.060552" y="20.677065" style="fill-opacity: 0.35; stroke: #000000; stroke-opacity: 0.35"/>
     <use xlink:href="#mac12255c8a" x="58.003081" y="18.233341" style="fill-opacity: 0.35; stroke: #000000; stroke-opacity: 0.35"/>
     <use xlink:href="#mac12255c8a" x="65.120954" y="17.126858" style="fill-opacity: 0.35; stroke: #000000; stroke-opacity: 0.35"/>
     <use xlink:href="#mac12255c8a" x="72.948351" y="15.661553" style="fill-opacity: 0.35; stroke: #000000; stroke-opacity: 0.35"/>
     <use xlink:href="#mac12255c8a" x="82.945301" y="14.956865" style="fill-opacity: 0.35; stroke: #000000; stroke-opacity: 0.35"/>
     <use xlink:href="#mac12255c8a" x="95.804523" y="14.066139" style="fill-opacity: 0.35; stroke: #000000; stroke-opacity: 0.35"/>
     <use xlink:href="#mac12255c8a" x="113.892127" y="13.631365" style="fill-opacity: 0.35; stroke: #000000; stroke-opacity: 0.35"/>
     <use xlink:href="#mac12255c8a" x="143.486502" y="12.794863" style="fill-opacity: 0.35; stroke: #000000; stroke-opacity: 0.35"/>
     <use xlink:href="#mac12255c8a" x="224.653131" y="11.681891" style="fill-opacity: 0.35; stroke: #000000; stroke-opacity: 0.35"/>
    </g>
   </g>
   <g id="matplotlib.axis_1">
    <g id="xtick_1">
     <g id="line2d_1">
      <defs>
       <path id="m3327b10c74" d="M 0 0 
L 0 3 
" style="stroke: #000000; stroke-width: 0.6"/>
      </defs>
      <g>
       <use xlink:href="#m3327b10c74" x="37.329737" y="158.751969" style="stroke: #000000; stroke-width: 0.6"/>
      </g>
     </g>
     <g id="text_1">
      <text style="font-size: 6px; font-family: 'Arial'; text-anchor: middle" x="37.329737" y="169.546656" transform="rotate(-0 37.329737 169.546656)">0</text>
     </g>
    </g>
    <g id="xtick_2">
     <g id="line2d_2">
      <g>
       <use xlink:href="#m3327b10c74" x="62.159951" y="158.751969" style="stroke: #000000; stroke-width: 0.6"/>
      </g>
     </g>
     <g id="text_2">
      <text style="font-size: 6px; font-family: 'Arial'; text-anchor: middle" x="62.159951" y="169.546656" transform="rotate(-0 62.159951 169.546656)">200</text>
     </g>
    </g>
    <g id="xtick_3">
     <g id="line2d_3">
      <g>
       <use xlink:href="#m3327b10c74" x="86.990165" y="158.751969" style="stroke: #000000; stroke-width: 0.6"/>
      </g>
     </g>
     <g id="text_3">
      <text style="font-size: 6px; font-family: 'Arial'; text-anchor: middle" x="86.990165" y="169.546656" transform="rotate(-0 86.990165 169.546656)">400</text>
     </g>
    </g>
    <g id="xtick_4">
     <g id="line2d_4">
      <g>
       <use xlink:href="#m3327b10c74" x="111.820379" y="158.751969" style="stroke: #000000; stroke-width: 0.6"/>
      </g>
     </g>
     <g id="text_4">
      <text style="font-size: 6px; font-family: 'Arial'; text-anchor: middle" x="111.820379" y="169.546656" transform="rotate(-0 111.820379 169.546656)">600</text>
     </g>
    </g>
    <g id="xtick_5">
     <g id="line2d_5">
      <g>
       <use xlink:href="#m3327b10c74" x="136.650592" y="158.751969" style="stroke: #000000; stroke-width: 0.6"/>
      </g>
     </g>
     <g id="text_5">
      <text style="font-size: 6px; font-family: 'Arial'; text-anchor: middle" x="136.650592" y="169.546656" transform="rotate(-0 136.650592 169.546656)">800</text>
     </g>
    </g>
    <g id="xtick_6">
     <g id="line2d_6">
      <g>
       <use xlink:href="#m3327b10c74" x="161.480806" y="158.751969" style="stroke: #000000; stroke-width: 0.6"/>
      </g>
     </g>
     <g id="text_6">
      <text style="font-size: 6px; font-family: 'Arial'; text-anchor: middle" x="161.480806" y="169.546656" transform="rotate(-0 161.480806 169.546656)">1000</text>
     </g>
    </g>
    <g id="xtick_7">
     <g id="line2d_7">
      <g>
       <use xlink:href="#m3327b10c74" x="186.31102" y="158.751969" style="stroke: #000000; stroke-width: 0.6"/>
      </g>
     </g>
     <g id="text_7">
      <text style="font-size: 6px; font-family: 'Arial'; text-anchor: middle" x="186.31102" y="169.546656" transform="rotate(-0 186.31102 169.546656)">1200</text>
     </g>
    </g>
    <g id="xtick_8">
     <g id="line2d_8">
      <g>
       <use xlink:href="#m3327b10c74" x="211.141234" y="158.751969" style="stroke: #000000; stroke-width: 0.6"/>
      </g>
     </g>
     <g id="text_8">
      <text style="font-size: 6px; font-family: 'Arial'; text-anchor: middle" x="211.141234" y="169.546656" transform="rotate(-0 211.141234 169.546656)">1400</text>
     </g>
    </g>
    <g id="text_9">
     <text style="font-weight: 700; font-size: 8px; font-family: 'Arial'; text-anchor: middle" x="133.745566" y="177.465406" transform="rotate(-0 133.745566 177.465406)">Number of actin localizations</text>
    </g>
   </g>
   <g id="matplotlib.axis_2">
    <g id="ytick_1">
     <g id="line2d_9">
      <defs>
       <path id="mbddd44f006" d="M 0 0 
L -3 0 
" style="stroke: #000000; stroke-width: 0.6"/>
      </defs>
      <g>
       <use xlink:href="#mbddd44f006" x="33.02625" y="158.751969" style="stroke: #000000; stroke-width: 0.6"/>
      </g>
     </g>
     <g id="text_10">
      <text style="font-size: 6px; font-family: 'Arial'; text-anchor: end" x="26.52625" y="160.899312" transform="rotate(-0 26.52625 160.899312)">0.00</text>
     </g>
    </g>
    <g id="ytick_2">
     <g id="line2d_10">
      <g>
       <use xlink:href="#mbddd44f006" x="33.02625" y="139.583565" style="stroke: #000000; stroke-width: 0.6"/>
      </g>
     </g>
     <g id="text_11">
      <text style="font-size: 6px; font-family: 'Arial'; text-anchor: end" x="26.52625" y="141.730909" transform="rotate(-0 26.52625 141.730909)">0.20</text>
     </g>
    </g>
    <g id="ytick_3">
     <g id="line2d_11">
      <g>
       <use xlink:href="#mbddd44f006" x="33.02625" y="120.415161" style="stroke: #000000; stroke-width: 0.6"/>
      </g>
     </g>
     <g id="text_12">
      <text style="font-size: 6px; font-family: 'Arial'; text-anchor: end" x="26.52625" y="122.562505" transform="rotate(-0 26.52625 122.562505)">0.40</text>
     </g>
    </g>
    <g id="ytick_4">
     <g id="line2d_12">
      <g>
       <use xlink:href="#mbddd44f006" x="33.02625" y="101.246758" style="stroke: #000000; stroke-width: 0.6"/>
      </g>
     </g>
     <g id="text_13">
      <text style="font-size: 6px; font-family: 'Arial'; text-anchor: end" x="26.52625" y="103.394101" transform="rotate(-0 26.52625 103.394101)">0.60</text>
     </g>
    </g>
    <g id="ytick_5">
     <g id="line2d_13">
      <g>
       <use xlink:href="#mbddd44f006" x="33.02625" y="82.078354" style="stroke: #000000; stroke-width: 0.6"/>
      </g>
     </g>
     <g id="text_14">
      <text style="font-size: 6px; font-family: 'Arial'; text-anchor: end" x="26.52625" y="84.225698" transform="rotate(-0 26.52625 84.225698)">0.80</text>
     </g>
    </g>
    <g id="ytick_6">
     <g id="line2d_14">
      <g>
       <use xlink:href="#mbddd44f006" x="33.02625" y="62.90995" style="stroke: #000000; stroke-width: 0.6"/>
      </g>
     </g>
     <g id="text_15">
      <text style="font-size: 6px; font-family: 'Arial'; text-anchor: end" x="26.52625" y="65.057294" transform="rotate(-0 26.52625 65.057294)">1.00</text>
     </g>
    </g>
    <g id="ytick_7">
     <g id="line2d_15">
      <g>
       <use xlink:href="#mbddd44f006" x="33.02625" y="43.741547" style="stroke: #000000; stroke-width: 0.6"/>
      </g>
     </g>
     <g id="text_16">
      <text style="font-size: 6px; font-family: 'Arial'; text-anchor: end" x="26.52625" y="45.88889" transform="rotate(-0 26.52625 45.88889)">1.20</text>
     </g>
    </g>
    <g id="ytick_8">
     <g id="line2d_16">
      <g>
       <use xlink:href="#mbddd44f006" x="33.02625" y="24.573143" style="stroke: #000000; stroke-width: 0.6"/>
      </g>
     </g>
     <g id="text_17">
      <text style="font-size: 6px; font-family: 'Arial'; text-anchor: end" x="26.52625" y="26.720487" transform="rotate(-0 26.52625 26.720487)">1.40</text>
     </g>
    </g>
    <g id="ytick_9">
     <g id="line2d_17">
      <g>
       <use xlink:href="#mbddd44f006" x="33.02625" y="8.28" style="stroke: #000000; stroke-width: 0.6"/>
      </g>
     </g>
     <g id="text_18">
      <text style="font-size: 6px; font-family: 'Arial'; text-anchor: end" x="26.52625" y="10.427344" transform="rotate(-0 26.52625 10.427344)">1.57</text>
     </g>
    </g>
    <g id="text_19">
     <text style="font-weight: 700; font-size: 8px; font-family: 'Arial'; text-anchor: middle" x="12.165938" y="83.515984" transform="rotate(-90 12.165938 83.515984)">Actin uniformity (rad)</text>
    </g>
   </g>
   <g id="line2d_18">
    <path d="M 65.581003 83.353692 
L 73.247597 82.000269 
L 82.611771 85.602162 
L 96.6776 70.896826 
L 115.232176 66.884725 
L 144.506943 54.3591 
L 225.30858 50.432729 
" clip-path="url(#p89e5b0f854)" style="fill: none; stroke: #ff1493; stroke-width: 1.5; stroke-linecap: square"/>
   </g>
   <g id="line2d_19">
    <path d="M 42.182551 70.301332 
L 51.060552 58.481894 
L 57.993911 55.414659 
L 65.108445 48.291852 
L 72.936491 47.581435 
L 82.977269 42.409945 
L 95.584638 42.670039 
L 112.72236 38.274735 
L 139.122154 31.220102 
" clip-path="url(#p89e5b0f854)" style="fill: none; stroke: #808080; stroke-width: 1.5; stroke-linecap: square"/>
   </g>
   <g id="line2d_20">
    <path d="M 42.182551 31.171456 
L 51.060552 20.677065 
L 58.003081 18.233341 
L 65.120954 17.126858 
L 72.948351 15.661553 
L 82.945301 14.956865 
L 95.804523 14.066139 
L 113.892127 13.631365 
L 143.486502 12.794863 
L 224.653131 11.681891 
" clip-path="url(#p89e5b0f854)" style="fill: none; stroke: #000000; stroke-width: 1.5; stroke-linecap: square"/>
   </g>
   <g id="patch_3">
    <path d="M 33.02625 158.751969 
L 33.02625 8.28 
" style="fill: none; stroke: #000000; stroke-width: 0.6; stroke-linejoin: miter; stroke-linecap: square"/>
   </g>
   <g id="patch_4">
    <path d="M 33.02625 158.751969 
L 234.464882 158.751969 
" style="fill: none; stroke: #000000; stroke-width: 0.6; stroke-linejoin: miter; stroke-linecap: square"/>
   </g>
   <g id="legend_1">
    <g id="patch_5">
     <path d="M 132.032694 155.751969 
L 230.264882 155.751969 
Q 231.464882 155.751969 231.464882 154.551969 
L 231.464882 129.620094 
Q 231.464882 128.420094 230.264882 128.420094 
L 132.032694 128.420094 
Q 130.832694 128.420094 130.832694 129.620094 
L 130.832694 154.551969 
Q 130.832694 155.751969 132.032694 155.751969 
z
" style="fill: #ffffff; opacity: 0.8; stroke: #cccccc; stroke-linejoin: miter"/>
    </g>
    <g id="line2d_21">
     <path d="M 133.232694 133.014781 
L 139.232694 133.014781 
L 145.232694 133.014781 
" style="fill: none; stroke: #ff1493; stroke-width: 1.5; stroke-linecap: square"/>
    </g>
    <g id="text_20">
     <text style="font-size: 6px; font-family: 'Arial'; text-anchor: start" x="150.032694" y="135.114781" transform="rotate(-0 150.032694 135.114781)">Actin positive sites</text>
    </g>
    <g id="line2d_22">
     <path d="M 133.232694 141.501969 
L 139.232694 141.501969 
L 145.232694 141.501969 
" style="fill: none; stroke: #808080; stroke-width: 1.5; stroke-linecap: square"/>
    </g>
    <g id="text_21">
     <text style="font-size: 6px; font-family: 'Arial'; text-anchor: start" x="150.032694" y="143.601969" transform="rotate(-0 150.032694 143.601969)">Actin negative sites</text>
    </g>
    <g id="line2d_23">
     <path d="M 133.232694 150.059469 
L 139.232694 150.059469 
L 145.232694 150.059469 
" style="fill: none; stroke: #000000; stroke-width: 1.5; stroke-linecap: square"/>
    </g>
    <g id="text_22">
     <text style="font-size: 6px; font-family: 'Arial'; text-anchor: start" x="150.032694" y="152.159469" transform="rotate(-0 150.032694 152.159469)">Simulated uniform distribution</text>
    </g>
   </g>
  </g>
 </g>
 <defs>
  <clipPath id="p89e5b0f854">
   <rect x="33.02625" y="8.28" width="201.438632" height="150.471969"/>
  </clipPath>
 </defs>
</svg>
