<?xml version="1.0" encoding="utf-8" standalone="no"?>
<!DOCTYPE svg PUBLIC "-//W3C//DTD SVG 1.1//EN"
  "http://www.w3.org/Graphics/SVG/1.1/DTD/svg11.dtd">
<svg xmlns:xlink="http://www.w3.org/1999/xlink" width="240.944882pt" height="184.251969pt" viewBox="0 0 240.944882 184.251969" xmlns="http://www.w3.org/2000/svg" version="1.1">
 <metadata>
  <rdf:RDF xmlns:dc="http://purl.org/dc/elements/1.1/" xmlns:cc="http://creativecommons.org/ns#" xmlns:rdf="http://www.w3.org/1999/02/22-rdf-syntax-ns#">
   <cc:Work>
    <dc:type rdf:resource="http://purl.org/dc/dcmitype/StillImage"/>
    <dc:date>2026-09-22T09:40:03.061334</dc:date>
    <dc:format>image/svg+xml</dc:format>
    <dc:creator>
     <cc:Agent>
      <dc:title>Matplotlib v3.10.0, https://matplotlib.org/</dc:title>
     </cc:Agent>
    </dc:creator>
   </cc:Work>
  </rdf:RDF>
 </metadata>
 <defs>
  <style type="text/css">*{stroke-linejoin: round; stroke-linecap: butt}</style>
 </defs>
 <g id="figure_1">
  <g id="patch_1">
   <path d="M 0 184.251969 
L 240.944882 184.251969 
L 240.944882 0 
L 0 0 
L 0 184.251969 
z
" style="fill: none"/>
  </g>
  <g id="axes_1">
   <g id="patch_2">
    <path d="M 29.69625 158.751969 
L 234.464882 158.751969 
L 234.464882 6.48 
L 29.69625 6.48 
L 29.69625 158.751969 
z
" style="fill: none"/>
   </g>
   <g id="FillBetweenPolyCollection_1">
    <defs>
     <path id="m26691b48b4" d="M 39.823875 -96.163592 
L 39.823875 -32.421453 
L 54.949684 -61.593098 
L 64.552566 -68.617975 
L 73.178018 -70.40502 
L 82.153967 -77.158876 
L 92.509119 -89.805067 
L 102.702158 -79.461614 
L 119.613387 -79.977101 
L 146.865795 -94.62432 
L 225.157217 -100.746615 
L 225.157217 -152.939159 
L 225.157217 -152.939159 
L 146.865795 -144.790523 
L 119.613387 -142.670475 
L 102.702158 -144.664452 
L 92.509119 -142.57374 
L 82.153967 -136.222867 
L 73.178018 -136.046314 
L 64.552566 -126.65778 
L 54.949684 -121.850587 
L 39.823875 -96.163592 
z
" style="stroke: #721f81; stroke-opacity: 0.3"/>
    </defs>
    <g clip-path="url(#pdebd5d2357)">
     <use xlink:href="#m26691b48b4" x="0" y="184.251969" style="fill: #721f81; fill-opacity: 0.3; stroke: #721f81; stroke-opacity: 0.3"/>
    </g>
   </g>
   <g id="PathCollection_1">
    <defs>
     <path id="m1ec7eb974e" d="M 0 2.236068 
C 0.593012 2.236068 1.161816 2.000462 1.581139 1.581139 
C 2.000462 1.161816 2.236068 0.593012 2.236068 0 
C 2.236068 -0.593012 2.000462 -1.161816 1.581139 -1.581139 
C 1.161816 -2.000462 0.593012 -2.236068 0 -2.236068 
C -0.593012 -2.236068 -1.161816 -2.000462 -1.581139 -1.581139 
C -2.000462 -1.161816 -2.236068 -0.593012 -2.236068 0 
C -2.236068 0.593012 -2.000462 1.161816 -1.581139 1.581139 
C -1.161816 2.000462 -0.593012 2.236068 0 2.236068 
z
" style="stroke: #721f81; stroke-opacity: 0.35"/>
    </defs>
    <g clip-path="url(#pdebd5d2357)">
     <use xlink:href="#m1ec7eb974e" x="39.823875" y="121.510427" style="fill: #721f81; fill-opacity: 0.35; stroke: #721f81; stroke-opacity: 0.35"/>
     <use xlink:href="#m1ec7eb974e" x="54.949684" y="95.237597" style="fill: #721f81; fill-opacity: 0.35; stroke: #721f81; stroke-opacity: 0.35"/>
     <use xlink:href="#m1ec7eb974e" x="64.552566" y="84.011395" style="fill: #721f81; fill-opacity: 0.35; stroke: #721f81; stroke-opacity: 0.35"/>
     <use xlink:href="#m1ec7eb974e" x="73.178018" y="78.923327" style="fill: #721f81; fill-opacity: 0.35; stroke: #721f81; stroke-opacity: 0.35"/>
     <use xlink:href="#m1ec7eb974e" x="82.153967" y="74.473647" style="fill: #721f81; fill-opacity: 0.35; stroke: #721f81; stroke-opacity: 0.35"/>
     <use xlink:href="#m1ec7eb974e" x="92.509119" y="64.774774" style="fill: #721f81; fill-opacity: 0.35; stroke: #721f81; stroke-opacity: 0.35"/>
     <use xlink:href="#m1ec7eb974e" x="102.702158" y="65.718787" style="fill: #721f81; fill-opacity: 0.35; stroke: #721f81; stroke-opacity: 0.35"/>
     <use xlink:href="#m1ec7eb974e" x="119.613387" y="66.585555" style="fill: #721f81; fill-opacity: 0.35; stroke: #721f81; stroke-opacity: 0.35"/>
     <use xlink:href="#m1ec7eb974e" x="146.865795" y="65.683736" style="fill: #721f81; fill-opacity: 0.35; stroke: #721f81; stroke-opacity: 0.35"/>
     <use xlink:href="#m1ec7eb974e" x="225.157217" y="58.806433" style="fill: #721f81; fill-opacity: 0.35; stroke: #721f81; stroke-opacity: 0.35"/>
    </g>
   </g>
   <g id="FillBetweenPolyCollection_2">
    <defs>
     <path id="md132d39209" d="M 39.003915 -117.599674 
L 39.003915 -44.333184 
L 56.278328 -76.858766 
L 67.917614 -76.410846 
L 76.217348 -80.365315 
L 86.925316 -96.605791 
L 99.226661 -97.799642 
L 115.728141 -108.998961 
L 135.507956 -119.766339 
L 161.334216 -116.325517 
L 221.371607 -137.076893 
L 221.371607 -170.850515 
L 221.371607 -170.850515 
L 161.334216 -167.684538 
L 135.507956 -155.328521 
L 115.728141 -157.652949 
L 99.226661 -151.092469 
L 86.925316 -138.943202 
L 76.217348 -145.559281 
L 67.917614 -135.287282 
L 56.278328 -126.279235 
L 39.003915 -117.599674 
z
" style="stroke: #f1605d; stroke-opacity: 0.3"/>
    </defs>
    <g clip-path="url(#pdebd5d2357)">
     <use xlink:href="#md132d39209" x="0" y="184.251969" style="fill: #f1605d; fill-opacity: 0.3; stroke: #f1605d; stroke-opacity: 0.3"/>
    </g>
   </g>
   <g id="PathCollection_2">
    <defs>
     <path id="m94df8d9331" d="M 0 2.236068 
C 0.593012 2.236068 1.161816 2.000462 1.581139 1.581139 
C 2.000462 1.161816 2.236068 0.593012 2.236068 0 
C 2.236068 -0.593012 2.000462 -1.161816 1.581139 -1.581139 
C 1.161816 -2.000462 0.593012 -2.236068 0 -2.236068 
C -0.593012 -2.236068 -1.161816 -2.000462 -1.581139 -1.581139 
C -2.000462 -1.161816 -2.236068 -0.593012 -2.236068 0 
C -2.236068 0.593012 -2.000462 1.161816 -1.581139 1.581139 
C -1.161816 2.000462 -0.593012 2.236068 0 2.236068 
z
" style="stroke: #f1605d; stroke-opacity: 0.35"/>
    </defs>
    <g clip-path="url(#pdebd5d2357)">
     <use xlink:href="#m94df8d9331" x="39.003915" y="93.376537" style="fill: #f1605d; fill-opacity: 0.35; stroke: #f1605d; stroke-opacity: 0.35"/>
     <use xlink:href="#m94df8d9331" x="56.278328" y="81.737768" style="fill: #f1605d; fill-opacity: 0.35; stroke: #f1605d; stroke-opacity: 0.35"/>
     <use xlink:href="#m94df8d9331" x="67.917614" y="79.685501" style="fill: #f1605d; fill-opacity: 0.35; stroke: #f1605d; stroke-opacity: 0.35"/>
     <use xlink:href="#m94df8d9331" x="76.217348" y="68.838453" style="fill: #f1605d; fill-opacity: 0.35; stroke: #f1605d; stroke-opacity: 0.35"/>
     <use xlink:href="#m94df8d9331" x="86.925316" y="64.640298" style="fill: #f1605d; fill-opacity: 0.35; stroke: #f1605d; stroke-opacity: 0.35"/>
     <use xlink:href="#m94df8d9331" x="99.226661" y="55.394166" style="fill: #f1605d; fill-opacity: 0.35; stroke: #f1605d; stroke-opacity: 0.35"/>
     <use xlink:href="#m94df8d9331" x="115.728141" y="43.627279" style="fill: #f1605d; fill-opacity: 0.35; stroke: #f1605d; stroke-opacity: 0.35"/>
     <use xlink:href="#m94df8d9331" x="135.507956" y="42.273943" style="fill: #f1605d; fill-opacity: 0.35; stroke: #f1605d; stroke-opacity: 0.35"/>
     <use xlink:href="#m94df8d9331" x="161.334216" y="26.555587" style="fill: #f1605d; fill-opacity: 0.35; stroke: #f1605d; stroke-opacity: 0.35"/>
     <use xlink:href="#m94df8d9331" x="221.371607" y="23.850319" style="fill: #f1605d; fill-opacity: 0.35; stroke: #f1605d; stroke-opacity: 0.35"/>
    </g>
   </g>
   <g id="matplotlib.axis_1">
    <g id="xtick_1">
     <g id="line2d_1">
      <defs>
       <path id="m20928c0d48" d="M 0 0 
L 0 3 
" style="stroke: #000000; stroke-width: 0.6"/>
      </defs>
      <g>
       <use xlink:href="#m20928c0d48" x="48.243993" y="158.751969" style="stroke: #000000; stroke-width: 0.6"/>
      </g>
     </g>
     <g id="text_1">
      <text style="font-size: 6px; font-family: 'Arial'; text-anchor: middle" x="48.243993" y="169.546656" transform="rotate(-0 48.243993 169.546656)">500</text>
     </g>
    </g>
    <g id="xtick_2">
     <g id="line2d_2">
      <g>
       <use xlink:href="#m20928c0d48" x="89.63223" y="158.751969" style="stroke: #000000; stroke-width: 0.6"/>
      </g>
     </g>
     <g id="text_2">
      <text style="font-size: 6px; font-family: 'Arial'; text-anchor: middle" x="89.63223" y="169.546656" transform="rotate(-0 89.63223 169.546656)">1000</text>
     </g>
    </g>
    <g id="xtick_3">
     <g id="line2d_3">
      <g>
       <use xlink:href="#m20928c0d48" x="131.020468" y="158.751969" style="stroke: #000000; stroke-width: 0.6"/>
      </g>
     </g>
     <g id="text_3">
      <text style="font-size: 6px; font-family: 'Arial'; text-anchor: middle" x="131.020468" y="169.546656" transform="rotate(-0 131.020468 169.546656)">1500</text>
     </g>
    </g>
    <g id="xtick_4">
     <g id="line2d_4">
      <g>
       <use xlink:href="#m20928c0d48" x="172.408705" y="158.751969" style="stroke: #000000; stroke-width: 0.6"/>
      </g>
     </g>
     <g id="text_4">
      <text style="font-size: 6px; font-family: 'Arial'; text-anchor: middle" x="172.408705" y="169.546656" transform="rotate(-0 172.408705 169.546656)">2000</text>
     </g>
    </g>
    <g id="xtick_5">
     <g id="line2d_5">
      <g>
       <use xlink:href="#m20928c0d48" x="213.796942" y="158.751969" style="stroke: #000000; stroke-width: 0.6"/>
      </g>
     </g>
     <g id="text_5">
      <text style="font-size: 6px; font-family: 'Arial'; text-anchor: middle" x="213.796942" y="169.546656" transform="rotate(-0 213.796942 169.546656)">2500</text>
     </g>
    </g>
    <g id="text_6">
     <text style="font-weight: 700; font-size: 8px; font-family: 'Arial'; text-anchor: middle" x="132.080566" y="177.465406" transform="rotate(-0 132.080566 177.465406)">Number of actin localizations</text>
    </g>
   </g>
   <g id="matplotlib.axis_2">
    <g id="ytick_1">
     <g id="line2d_6">
      <defs>
       <path id="m6669124363" d="M 0 0 
L -3 0 
" style="stroke: #000000; stroke-width: 0.6"/>
      </defs>
      <g>
       <use xlink:href="#m6669124363" x="29.69625" y="145.559274" style="stroke: #000000; stroke-width: 0.6"/>
      </g>
     </g>
     <g id="text_7">
      <text style="font-size: 6px; font-family: 'Arial'; text-anchor: end" x="23.19625" y="147.706618" transform="rotate(-0 23.19625 147.706618)">5.4</text>
     </g>
    </g>
    <g id="ytick_2">
     <g id="line2d_7">
      <g>
       <use xlink:href="#m6669124363" x="29.69625" y="128.000826" style="stroke: #000000; stroke-width: 0.6"/>
      </g>
     </g>
     <g id="text_8">
      <text style="font-size: 6px; font-family: 'Arial'; text-anchor: end" x="23.19625" y="130.14817" transform="rotate(-0 23.19625 130.14817)">5.5</text>
     </g>
    </g>
    <g id="ytick_3">
     <g id="line2d_8">
      <g>
       <use xlink:href="#m6669124363" x="29.69625" y="110.442378" style="stroke: #000000; stroke-width: 0.6"/>
      </g>
     </g>
     <g id="text_9">
      <text style="font-size: 6px; font-family: 'Arial'; text-anchor: end" x="23.19625" y="112.589722" transform="rotate(-0 23.19625 112.589722)">5.6</text>
     </g>
    </g>
    <g id="ytick_4">
     <g id="line2d_9">
      <g>
       <use xlink:href="#m6669124363" x="29.69625" y="92.88393" style="stroke: #000000; stroke-width: 0.6"/>
      </g>
     </g>
     <g id="text_10">
      <text style="font-size: 6px; font-family: 'Arial'; text-anchor: end" x="23.19625" y="95.031274" transform="rotate(-0 23.19625 95.031274)">5.7</text>
     </g>
    </g>
    <g id="ytick_5">
     <g id="line2d_10">
      <g>
       <use xlink:href="#m6669124363" x="29.69625" y="75.325482" style="stroke: #000000; stroke-width: 0.6"/>
      </g>
     </g>
     <g id="text_11">
      <text style="font-size: 6px; font-family: 'Arial'; text-anchor: end" x="23.19625" y="77.472826" transform="rotate(-0 23.19625 77.472826)">5.8</text>
     </g>
    </g>
    <g id="ytick_6">
     <g id="line2d_11">
      <g>
       <use xlink:href="#m6669124363" x="29.69625" y="57.767034" style="stroke: #000000; stroke-width: 0.6"/>
      </g>
     </g>
     <g id="text_12">
      <text style="font-size: 6px; font-family: 'Arial'; text-anchor: end" x="23.19625" y="59.914378" transform="rotate(-0 23.19625 59.914378)">5.9</text>
     </g>
    </g>
    <g id="ytick_7">
     <g id="line2d_12">
      <g>
       <use xlink:href="#m6669124363" x="29.69625" y="40.208586" style="stroke: #000000; stroke-width: 0.6"/>
      </g>
     </g>
     <g id="text_13">
      <text style="font-size: 6px; font-family: 'Arial'; text-anchor: end" x="23.19625" y="42.35593" transform="rotate(-0 23.19625 42.35593)">6.0</text>
     </g>
    </g>
    <g id="ytick_8">
     <g id="line2d_13">
      <g>
       <use xlink:href="#m6669124363" x="29.69625" y="22.650138" style="stroke: #000000; stroke-width: 0.6"/>
      </g>
     </g>
     <g id="text_14">
      <text style="font-size: 6px; font-family: 'Arial'; text-anchor: end" x="23.19625" y="24.797482" transform="rotate(-0 23.19625 24.797482)">6.1</text>
     </g>
    </g>
    <g id="text_15">
     <text style="font-weight: 700; font-size: 8px; font-family: 'Arial'; text-anchor: middle" x="12.1725" y="82.615984" transform="rotate(-90 12.1725 82.615984)">Actin uniformity (rad)</text>
    </g>
   </g>
   <g id="line2d_14">
    <path d="M 39.823875 121.510427 
L 54.949684 95.237597 
L 64.552566 84.011395 
L 73.178018 78.923327 
L 82.153967 74.473647 
L 92.509119 64.774774 
L 102.702158 65.718787 
L 119.613387 66.585555 
L 146.865795 65.683736 
L 225.157217 58.806433 
" clip-path="url(#pdebd5d2357)" style="fill: none; stroke: #721f81; stroke-width: 1.5; stroke-linecap: square"/>
   </g>
   <g id="line2d_15">
    <path d="M 39.003915 93.376537 
L 56.278328 81.737768 
L 67.917614 79.685501 
L 76.217348 68.838453 
L 86.925316 64.640298 
L 99.226661 55.394166 
L 115.728141 43.627279 
L 135.507956 42.273943 
L 161.334216 26.555587 
L 221.371607 23.850319 
" clip-path="url(#pdebd5d2357)" style="fill: none; stroke: #f1605d; stroke-width: 1.5; stroke-linecap: square"/>
   </g>
   <g id="patch_3">
    <path d="M 29.69625 158.751969 
L 29.69625 6.48 
" style="fill: none; stroke: #000000; stroke-width: 0.6; stroke-linejoin: miter; stroke-linecap: square"/>
   </g>
   <g id="patch_4">
    <path d="M 29.69625 158.751969 
L 234.464882 158.751969 
" style="fill: none; stroke: #000000; stroke-width: 0.6; stroke-linejoin: miter; stroke-linecap: square"/>
   </g>
   <g id="legend_1">
    <g id="patch_5">
     <path d="M 191.724257 155.751969 
L 230.264882 155.751969 
Q 231.464882 155.751969 231.464882 154.551969 
L 231.464882 138.177594 
Q 231.464882 136.977594 230.264882 136.977594 
L 191.724257 136.977594 
Q 190.524257 136.977594 190.524257 138.177594 
L 190.524257 154.551969 
Q 190.524257 155.751969 191.724257 155.751969 
z
" style="fill: #ffffff; opacity: 0.8; stroke: #cccccc; stroke-linejoin: miter"/>
    </g>
    <g id="line2d_16">
     <path d="M 192.924257 141.572281 
L 198.924257 141.572281 
L 204.924257 141.572281 
" style="fill: none; stroke: #721f81; stroke-width: 1.5; stroke-linecap: square"/>
    </g>
    <g id="text_16">
     <text style="font-size: 6px; font-family: 'Arial'; text-anchor: start" x="209.724257" y="143.672281" transform="rotate(-0 209.724257 143.672281)">Control</text>
    </g>
    <g id="line2d_17">
     <path d="M 192.924257 150.059469 
L 198.924257 150.059469 
L 204.924257 150.059469 
" style="fill: none; stroke: #f1605d; stroke-width: 1.5; stroke-linecap: square"/>
    </g>
    <g id="text_17">
     <text style="font-size: 6px; font-family: 'Arial'; text-anchor: start" x="209.724257" y="152.159469" transform="rotate(-0 209.724257 152.159469)">Shock</text>
    </g>
   </g>
  </g>
 </g>
 <defs>
  <clipPath id="pdebd5d2357">
   <rect x="29.69625" y="6.48" width="204.768632" height="152.271969"/>
  </clipPath>
 </defs>
</svg>
